<?xml version="1.0" encoding="UTF-8" standalone="no"?>
<svg width="297mm" height="210mm" viewBox="0 0 297 210" version="1.1" id="svg5" xmlns="http://www.w3.org/2000/svg" xmlns:svg="http://www.w3.org/2000/svg">
<g id="checkers">
<rect width="31" height="31" x="9" y="12"></rect>
<rect width="31" height="31" x="71" y="12"></rect>
<rect width="31" height="31" x="133" y="12"></rect>
<rect width="31" height="31" x="195" y="12"></rect>
<rect width="31" height="31" x="257" y="12"></rect>
<rect width="31" height="31" x="40" y="43"></rect>
<rect width="31" height="31" x="102" y="43"></rect>
<rect width="31" height="31" x="164" y="43"></rect>
<rect width="31" height="31" x="226" y="43"></rect>
<rect width="31" height="31" x="9" y="74"></rect>
<rect width="31" height="31" x="71" y="74"></rect>
<rect width="31" height="31" x="133" y="74"></rect>
<rect width="31" height="31" x="195" y="74"></rect>
<rect width="31" height="31" x="257" y="74"></rect>
<rect width="31" height="31" x="40" y="105"></rect>
<rect width="31" height="31" x="102" y="105"></rect>
<rect width="31" height="31" x="164" y="105"></rect>
<rect width="31" height="31" x="226" y="105"></rect>
<rect width="31" height="31" x="9" y="136"></rect>
<rect width="31" height="31" x="71" y="136"></rect>
<rect width="31" height="31" x="133" y="136"></rect>
<rect width="31" height="31" x="195" y="136"></rect>
<rect width="31" height="31" x="257" y="136"></rect>
<rect width="31" height="31" x="40" y="167"></rect>
<rect width="31" height="31" x="102" y="167"></rect>
<rect width="31" height="31" x="164" y="167"></rect>
<rect width="31" height="31" x="226" y="167"></rect>

</g>
</svg>
